<svg width="28" height="28" viewBox="0 0 28 28" fill="none" xmlns="http://www.w3.org/2000/svg">
<path d="M14.0004 26.6004C20.9592 26.6004 26.6004 20.9592 26.6004 14.0004C26.6004 7.0416 20.9592 1.40039 14.0004 1.40039C7.0416 1.40039 1.40039 7.0416 1.40039 14.0004C1.40039 20.9592 7.0416 26.6004 14.0004 26.6004Z" fill="#92A5AF"/>
<path d="M13.9999 14.9579C16.2684 14.9579 18.1073 13.1189 18.1073 10.8505C18.1073 8.58209 16.2684 6.74316 13.9999 6.74316C11.7315 6.74316 9.89258 8.58209 9.89258 10.8505C9.89258 13.1189 11.7315 14.9579 13.9999 14.9579Z" fill="#FAFAFA"/>
<path d="M21.594 21.0762C21.2501 20.6597 20.8741 20.2707 20.4694 19.9128C18.7473 18.2059 16.4306 17.2329 14.0061 17.1982C11.5816 17.2329 9.26488 18.2059 7.54272 19.9128C7.15487 20.2809 6.79616 20.6785 6.4698 21.1021C6.39614 21.2044 6.3394 21.3179 6.30176 21.4382C6.76121 21.9537 7.26752 22.4254 7.81418 22.8472C9.61115 24.2082 11.8036 24.9447 14.0578 24.9447C16.3119 24.9447 18.5044 24.2082 20.3014 22.8472C20.8301 22.4229 21.319 21.9513 21.7621 21.4382C21.7271 21.3089 21.6702 21.1864 21.594 21.0762Z" fill="#FAFAFA"/>
</svg>
