<svg width="24" height="24" viewBox="0 0 24 24" fill="none" xmlns="http://www.w3.org/2000/svg">
<path d="M18.5625 8.24988V17.9999C18.5625 18.1491 18.5032 18.2921 18.3978 18.3976C18.2923 18.5031 18.1492 18.5624 18 18.5624H8.25001C8.10082 18.5624 7.95775 18.5031 7.85226 18.3976C7.74677 18.2921 7.68751 18.1491 7.68751 17.9999C7.68751 17.8507 7.74677 17.7076 7.85226 17.6021C7.95775 17.4966 8.10082 17.4374 8.25001 17.4374H16.6425L5.60251 6.39738C5.50315 6.29075 5.44905 6.14972 5.45163 6.00399C5.4542 5.85827 5.51323 5.71923 5.61629 5.61617C5.71935 5.51311 5.85839 5.45407 6.00412 5.4515C6.14984 5.44893 6.29088 5.50302 6.39751 5.60238L17.4375 16.6424V8.24988C17.4375 8.1007 17.4968 7.95763 17.6023 7.85214C17.7077 7.74665 17.8508 7.68738 18 7.68738C18.1492 7.68738 18.2923 7.74665 18.3978 7.85214C18.5032 7.95763 18.5625 8.1007 18.5625 8.24988Z" fill="#42434B"/>
</svg>
