<svg width="24" height="24" viewBox="0 0 24 24" fill="none" xmlns="http://www.w3.org/2000/svg">
<path d="M19.1475 13.8975L12.3975 20.6475C12.292 20.7528 12.1491 20.812 12 20.812C11.8509 20.812 11.708 20.7528 11.6025 20.6475L4.85251 13.8975C4.75315 13.7909 4.69905 13.6498 4.70163 13.5041C4.7042 13.3584 4.76323 13.2193 4.86629 13.1163C4.96935 13.0132 5.10839 12.9542 5.25411 12.9516C5.39984 12.949 5.54088 13.0031 5.64751 13.1025L11.4375 18.8916V3.75C11.4375 3.60082 11.4968 3.45774 11.6023 3.35225C11.7077 3.24676 11.8508 3.1875 12 3.1875C12.1492 3.1875 12.2923 3.24676 12.3978 3.35225C12.5032 3.45774 12.5625 3.60082 12.5625 3.75V18.8916L18.3525 13.1025C18.4591 13.0031 18.6002 12.949 18.7459 12.9516C18.8916 12.9542 19.0307 13.0132 19.1337 13.1163C19.2368 13.2193 19.2958 13.3584 19.2984 13.5041C19.301 13.6498 19.2469 13.7909 19.1475 13.8975Z" fill="#42434B"/>
</svg>
