<svg width="24" height="24" viewBox="0 0 24 24" fill="none" xmlns="http://www.w3.org/2000/svg">
<path d="M18.3975 6.39738L7.3575 17.4374H15.75C15.8992 17.4374 16.0423 17.4966 16.1477 17.6021C16.2532 17.7076 16.3125 17.8507 16.3125 17.9999C16.3125 18.1491 16.2532 18.2921 16.1477 18.3976C16.0423 18.5031 15.8992 18.5624 15.75 18.5624H6C5.85082 18.5624 5.70774 18.5031 5.60225 18.3976C5.49676 18.2921 5.4375 18.1491 5.4375 17.9999V8.24988C5.4375 8.1007 5.49676 7.95763 5.60225 7.85214C5.70774 7.74665 5.85082 7.68738 6 7.68738C6.14918 7.68738 6.29226 7.74665 6.39775 7.85214C6.50324 7.95763 6.5625 8.1007 6.5625 8.24988V16.6424L17.6025 5.60238C17.7091 5.50302 17.8502 5.44893 17.9959 5.4515C18.1416 5.45407 18.2807 5.51311 18.3837 5.61617C18.4868 5.71923 18.5458 5.85827 18.5484 6.00399C18.551 6.14972 18.4969 6.29075 18.3975 6.39738Z" fill="#42434B"/>
</svg>
