<svg width="24" height="24" viewBox="0 0 24 24" fill="none" xmlns="http://www.w3.org/2000/svg">
<path d="M18.3975 18.3975C18.292 18.5028 18.1491 18.562 18 18.562C17.8509 18.562 17.708 18.5028 17.6025 18.3975L6.5625 7.3575V15.75C6.5625 15.8992 6.50324 16.0423 6.39775 16.1477C6.29226 16.2532 6.14918 16.3125 6 16.3125C5.85082 16.3125 5.70774 16.2532 5.60225 16.1477C5.49676 16.0423 5.4375 15.8992 5.4375 15.75V6C5.4375 5.85082 5.49676 5.70774 5.60225 5.60225C5.70774 5.49676 5.85082 5.4375 6 5.4375H15.75C15.8992 5.4375 16.0423 5.49676 16.1477 5.60225C16.2532 5.70774 16.3125 5.85082 16.3125 6C16.3125 6.14918 16.2532 6.29226 16.1477 6.39775C16.0423 6.50324 15.8992 6.5625 15.75 6.5625H7.3575L18.3975 17.6025C18.5028 17.708 18.562 17.8509 18.562 18C18.562 18.1491 18.5028 18.292 18.3975 18.3975Z" fill="#42434B"/>
</svg>
