<svg width="24" height="24" viewBox="0 0 24 24" fill="none" xmlns="http://www.w3.org/2000/svg">
<path d="M15.5625 21C15.5625 21.1492 15.5033 21.2923 15.3978 21.3977C15.2923 21.5032 15.1492 21.5625 15 21.5625H9.00004C8.85086 21.5625 8.70778 21.5032 8.60229 21.3977C8.49681 21.2923 8.43754 21.1492 8.43754 21C8.43754 20.8508 8.49681 20.7077 8.60229 20.6023C8.70778 20.4968 8.85086 20.4375 9.00004 20.4375H15C15.1492 20.4375 15.2923 20.4968 15.3978 20.6023C15.5033 20.7077 15.5625 20.8508 15.5625 21ZM20.6354 17.9062C20.5216 18.1065 20.3566 18.2729 20.1572 18.3882C19.9578 18.5036 19.7313 18.5637 19.501 18.5625H4.50004C4.26933 18.562 4.04283 18.5007 3.84336 18.3848C3.64388 18.2689 3.47849 18.1024 3.36384 17.9022C3.24919 17.702 3.18934 17.4751 3.19032 17.2444C3.1913 17.0137 3.25307 16.7874 3.36942 16.5881C3.8991 15.675 4.68754 13.1006 4.68754 9.75C4.68754 7.8106 5.45796 5.95064 6.82932 4.57928C8.20068 3.20792 10.0606 2.4375 12 2.4375C13.9394 2.4375 15.7994 3.20792 17.1708 4.57928C18.5421 5.95064 19.3125 7.8106 19.3125 9.75C19.3125 13.0997 20.1019 15.675 20.6325 16.5881C20.7501 16.7877 20.8124 17.0151 20.8129 17.2468C20.8134 17.4785 20.7521 17.7061 20.6354 17.9062ZM19.6594 17.1562C18.9497 15.9375 18.1875 13.095 18.1875 9.75C18.1875 8.10897 17.5356 6.53516 16.3753 5.37478C15.2149 4.2144 13.6411 3.5625 12 3.5625C10.359 3.5625 8.7852 4.2144 7.62482 5.37478C6.46444 6.53516 5.81254 8.10897 5.81254 9.75C5.81254 13.0959 5.04942 15.9375 4.33973 17.1562C4.32327 17.1848 4.31461 17.2171 4.31461 17.25C4.31461 17.2829 4.32327 17.3152 4.33973 17.3438C4.35517 17.3725 4.3782 17.3964 4.4063 17.4129C4.4344 17.4295 4.4665 17.438 4.4991 17.4375H19.5C19.5326 17.438 19.5647 17.4295 19.5928 17.4129C19.6209 17.3964 19.644 17.3725 19.6594 17.3438C19.6759 17.3152 19.6845 17.2829 19.6845 17.25C19.6845 17.2171 19.6759 17.1848 19.6594 17.1562Z" fill="#42434B"/>
</svg>
