<svg width="24" height="24" viewBox="0 0 24 24" fill="none" xmlns="http://www.w3.org/2000/svg">
<path d="M16.8974 12.3974L9.39739 19.8974C9.29075 19.9967 9.14972 20.0508 9.00399 20.0483C8.85827 20.0457 8.71923 19.9867 8.61617 19.8836C8.51311 19.7805 8.45407 19.6415 8.4515 19.4958C8.44893 19.3501 8.50303 19.209 8.60239 19.1024L15.7039 11.9999L8.60239 4.89739C8.50303 4.79075 8.44893 4.64972 8.4515 4.50399C8.45407 4.35827 8.51311 4.21923 8.61617 4.11617C8.71923 4.01311 8.85827 3.95407 9.00399 3.9515C9.14972 3.94893 9.29075 4.00302 9.39739 4.10238L16.8974 11.6024C17.0027 11.7079 17.0619 11.8508 17.0619 11.9999C17.0619 12.1489 17.0027 12.2919 16.8974 12.3974Z" fill="#42434B"/>
</svg>
