<svg width="24" height="24" viewBox="0 0 24 24" fill="none" xmlns="http://www.w3.org/2000/svg">
<path d="M15.3975 19.1024C15.4528 19.1539 15.4971 19.216 15.5278 19.285C15.5586 19.354 15.5751 19.4285 15.5764 19.504C15.5778 19.5795 15.5639 19.6545 15.5356 19.7246C15.5073 19.7946 15.4652 19.8582 15.4118 19.9117C15.3584 19.9651 15.2947 20.0072 15.2247 20.0355C15.1546 20.0638 15.0796 20.0777 15.0041 20.0763C14.9286 20.075 14.8541 20.0585 14.7851 20.0277C14.7161 19.997 14.654 19.9527 14.6025 19.8974L7.10249 12.3974C6.99716 12.2919 6.93799 12.1489 6.93799 11.9999C6.93799 11.8508 6.99716 11.7079 7.10249 11.6024L14.6025 4.10238C14.7091 4.00302 14.8502 3.94893 14.9959 3.9515C15.1416 3.95407 15.2807 4.01311 15.3837 4.11617C15.4868 4.21923 15.5458 4.35827 15.5484 4.50399C15.5509 4.64972 15.4969 4.79075 15.3975 4.89739L8.29593 11.9999L15.3975 19.1024Z" fill="#42434B"/>
</svg>
