<svg width="24" height="24" viewBox="0 0 24 24" fill="none" xmlns="http://www.w3.org/2000/svg">
<path d="M12 2.4375C10.1087 2.4375 8.25991 2.99833 6.68736 4.04907C5.11482 5.09981 3.88917 6.59327 3.16541 8.34059C2.44164 10.0879 2.25227 12.0106 2.62125 13.8656C2.99022 15.7205 3.90096 17.4244 5.2383 18.7617C6.57564 20.099 8.27951 21.0098 10.1345 21.3788C11.9894 21.7477 13.9121 21.5584 15.6594 20.8346C17.4067 20.1108 18.9002 18.8852 19.9509 17.3126C21.0017 15.7401 21.5625 13.8913 21.5625 12C21.5595 9.46478 20.5511 7.03425 18.7584 5.24158C16.9658 3.44891 14.5352 2.44048 12 2.4375ZM12 20.4375C10.3312 20.4375 8.69992 19.9426 7.31238 19.0155C5.92484 18.0884 4.84338 16.7706 4.20477 15.2289C3.56616 13.6871 3.39907 11.9906 3.72463 10.3539C4.05019 8.71721 4.85379 7.21379 6.03379 6.03379C7.2138 4.85378 8.71722 4.05019 10.3539 3.72462C11.9906 3.39906 13.6871 3.56615 15.2289 4.20477C16.7706 4.84338 18.0884 5.92484 19.0155 7.31238C19.9427 8.69992 20.4375 10.3312 20.4375 12C20.435 14.237 19.5453 16.3817 17.9635 17.9635C16.3817 19.5453 14.237 20.435 12 20.4375ZM12.9375 7.875C12.9375 8.06042 12.8825 8.24168 12.7795 8.39585C12.6765 8.55002 12.5301 8.67018 12.3588 8.74114C12.1875 8.81209 11.999 8.83066 11.8171 8.79449C11.6353 8.75831 11.4682 8.66902 11.3371 8.53791C11.206 8.4068 11.1167 8.23975 11.0805 8.0579C11.0443 7.87604 11.0629 7.68754 11.1339 7.51623C11.2048 7.34493 11.325 7.19851 11.4792 7.0955C11.6333 6.99248 11.8146 6.9375 12 6.9375C12.2486 6.9375 12.4871 7.03627 12.6629 7.21209C12.8387 7.3879 12.9375 7.62636 12.9375 7.875ZM12.9375 12C12.9375 12.1854 12.8825 12.3667 12.7795 12.5208C12.6765 12.675 12.5301 12.7952 12.3588 12.8661C12.1875 12.9371 11.999 12.9557 11.8171 12.9195C11.6353 12.8833 11.4682 12.794 11.3371 12.6629C11.206 12.5318 11.1167 12.3648 11.0805 12.1829C11.0443 12.001 11.0629 11.8125 11.1339 11.6412C11.2048 11.4699 11.325 11.3235 11.4792 11.2205C11.6333 11.1175 11.8146 11.0625 12 11.0625C12.2486 11.0625 12.4871 11.1613 12.6629 11.3371C12.8387 11.5129 12.9375 11.7514 12.9375 12ZM12.9375 16.125C12.9375 16.3104 12.8825 16.4917 12.7795 16.6458C12.6765 16.8 12.5301 16.9202 12.3588 16.9911C12.1875 17.0621 11.999 17.0807 11.8171 17.0445C11.6353 17.0083 11.4682 16.919 11.3371 16.7879C11.206 16.6568 11.1167 16.4898 11.0805 16.3079C11.0443 16.126 11.0629 15.9375 11.1339 15.7662C11.2048 15.5949 11.325 15.4485 11.4792 15.3455C11.6333 15.2425 11.8146 15.1875 12 15.1875C12.2486 15.1875 12.4871 15.2863 12.6629 15.4621C12.8387 15.6379 12.9375 15.8764 12.9375 16.125Z" fill="#42434B"/>
</svg>
