<svg width="24" height="24" viewBox="0 0 24 24" fill="none" xmlns="http://www.w3.org/2000/svg">
<path d="M4.91636 3.37508C4.81338 3.2795 4.67836 3.22591 4.53787 3.22487C4.39737 3.22383 4.26157 3.2754 4.15719 3.36944C4.0528 3.46348 3.98739 3.59318 3.97382 3.73302C3.96025 3.87286 3.9995 4.01272 4.08386 4.12508L6.04136 6.28133C2.54636 8.33445 1.05104 11.6251 0.986357 11.7723C0.954306 11.8443 0.937744 11.9222 0.937744 12.001C0.937744 12.0798 0.954306 12.1578 0.986357 12.2298C1.01823 12.302 1.79823 14.0316 3.54011 15.7735C5.15636 17.3879 7.93323 19.3126 12.0001 19.3126C13.7 19.3229 15.3818 18.963 16.9285 18.2579L19.0848 20.6288C19.1852 20.7392 19.3254 20.8052 19.4745 20.8122C19.6236 20.8193 19.7694 20.7668 19.8798 20.6663C19.9902 20.5659 20.0562 20.4257 20.0632 20.2766C20.0702 20.1275 20.0177 19.9817 19.9173 19.8713L4.91636 3.37508ZM9.47448 10.0613L13.6932 14.7038C13.0598 15.0996 12.3076 15.2604 11.5677 15.1581C10.8279 15.0559 10.1474 14.6971 9.64514 14.1443C9.14285 13.5916 8.85061 12.88 8.81941 12.1338C8.78822 11.3875 9.02007 10.6541 9.47448 10.0613ZM12.0001 18.1876C9.05823 18.1876 6.48948 17.117 4.36417 15.0066C3.47303 14.1214 2.71909 13.108 2.12729 12.0001C2.52948 11.2313 4.01167 8.70195 6.8148 7.13352L8.70854 9.2157C8.03431 10.0147 7.67325 11.0313 7.69254 12.0766C7.71183 13.1218 8.11016 14.1245 8.81342 14.898C9.51668 15.6715 10.477 16.1633 11.5157 16.2817C12.5544 16.4002 13.6007 16.1373 14.4601 15.542L16.1298 17.3795C14.8208 17.9211 13.4167 18.1959 12.0001 18.1876ZM12.6001 8.86883C12.4535 8.84086 12.3241 8.7558 12.2402 8.63238C12.1563 8.50896 12.1249 8.35728 12.1529 8.2107C12.1809 8.06413 12.2659 7.93467 12.3894 7.85081C12.5128 7.76694 12.6645 7.73554 12.811 7.76352C13.727 7.94146 14.5609 8.41062 15.1886 9.10109C15.8162 9.79155 16.2039 10.6663 16.2939 11.5951C16.3007 11.6686 16.293 11.7428 16.2711 11.8134C16.2493 11.884 16.2138 11.9496 16.1666 12.0064C16.1194 12.0633 16.0615 12.1103 15.9961 12.1447C15.9308 12.1792 15.8593 12.2004 15.7857 12.2073H15.7332C15.5926 12.2079 15.4568 12.1557 15.3527 12.0611C15.2485 11.9666 15.1836 11.8364 15.1707 11.6963C15.1039 11.0111 14.8176 10.3657 14.3544 9.85621C13.8912 9.34676 13.2759 9.00045 12.6001 8.86883ZM23.0139 12.2298C22.9754 12.316 22.0417 14.386 19.9332 16.2723C19.8785 16.3235 19.8142 16.3633 19.7439 16.3894C19.6736 16.4154 19.5988 16.4271 19.5239 16.4238C19.449 16.4205 19.3755 16.4023 19.3078 16.3702C19.24 16.3381 19.1794 16.2928 19.1294 16.2369C19.0794 16.1811 19.0411 16.1158 19.0167 16.0449C18.9923 15.974 18.9823 15.899 18.9873 15.8242C18.9924 15.7494 19.0123 15.6764 19.0459 15.6094C19.0795 15.5424 19.1262 15.4828 19.1832 15.4341C20.2731 14.455 21.1834 13.2928 21.8729 12.0001C21.281 10.8922 20.5271 9.87885 19.636 8.99352C17.5107 6.8832 14.942 5.81258 12.0001 5.81258C11.3817 5.81184 10.7643 5.86201 10.1542 5.96258C10.0807 5.97643 10.0052 5.97549 9.93211 5.95983C9.85901 5.94416 9.78977 5.91408 9.72843 5.87135C9.66708 5.82861 9.61488 5.77408 9.57486 5.71093C9.53484 5.64778 9.5078 5.57729 9.49534 5.50358C9.48288 5.42987 9.48524 5.35441 9.50228 5.28161C9.51931 5.20882 9.55069 5.14016 9.59458 5.07963C9.63846 5.0191 9.69397 4.96793 9.75786 4.92911C9.82175 4.89029 9.89273 4.86459 9.96667 4.85352C10.6387 4.74195 11.3189 4.68645 12.0001 4.68758C16.067 4.68758 18.8439 6.6132 20.4601 8.22758C22.202 9.96945 22.982 11.6963 23.0139 11.7723C23.0459 11.8443 23.0625 11.9222 23.0625 12.001C23.0625 12.0798 23.0459 12.1578 23.0139 12.2298Z" fill="#42434B"/>
</svg>
