<svg width="24" height="24" viewBox="0 0 24 24" fill="none" xmlns="http://www.w3.org/2000/svg">
<path d="M14.4375 7.50011C14.4375 7.35093 14.4968 7.20786 14.6023 7.10237C14.7078 6.99688 14.8509 6.93761 15 6.93761H23.25C23.3992 6.93761 23.5423 6.99688 23.6478 7.10237C23.7533 7.20786 23.8125 7.35093 23.8125 7.50011C23.8125 7.6493 23.7533 7.79237 23.6478 7.89786C23.5423 8.00335 23.3992 8.06261 23.25 8.06261H15C14.8509 8.06261 14.7078 8.00335 14.6023 7.89786C14.4968 7.79237 14.4375 7.6493 14.4375 7.50011ZM23.25 11.4376H15C14.8509 11.4376 14.7078 11.4969 14.6023 11.6024C14.4968 11.7079 14.4375 11.8509 14.4375 12.0001C14.4375 12.1493 14.4968 12.2924 14.6023 12.3979C14.7078 12.5034 14.8509 12.5626 15 12.5626H23.25C23.3992 12.5626 23.5423 12.5034 23.6478 12.3979C23.7533 12.2924 23.8125 12.1493 23.8125 12.0001C23.8125 11.8509 23.7533 11.7079 23.6478 11.6024C23.5423 11.4969 23.3992 11.4376 23.25 11.4376ZM23.25 15.9376H17.25C17.1009 15.9376 16.9578 15.9969 16.8523 16.1024C16.7468 16.2079 16.6875 16.3509 16.6875 16.5001C16.6875 16.6493 16.7468 16.7924 16.8523 16.8979C16.9578 17.0034 17.1009 17.0626 17.25 17.0626H23.25C23.3992 17.0626 23.5423 17.0034 23.6478 16.8979C23.7533 16.7924 23.8125 16.6493 23.8125 16.5001C23.8125 16.3509 23.7533 16.2079 23.6478 16.1024C23.5423 15.9969 23.3992 15.9376 23.25 15.9376ZM14.0447 17.8595C14.0632 17.931 14.0674 18.0055 14.0571 18.0786C14.0468 18.1518 14.0222 18.2222 13.9846 18.2858C13.9471 18.3495 13.8974 18.4051 13.8384 18.4495C13.7794 18.494 13.7122 18.5263 13.6407 18.5448C13.5691 18.5633 13.4947 18.5675 13.4215 18.5572C13.3484 18.5468 13.278 18.5222 13.2143 18.4847C13.1507 18.4472 13.0951 18.3975 13.0506 18.3385C13.0062 18.2795 12.9738 18.2123 12.9554 18.1407C12.3469 15.7773 10.0529 14.0626 7.50005 14.0626C4.94724 14.0626 2.65317 15.7773 2.04474 18.1398C2.02627 18.2113 1.99389 18.2785 1.94946 18.3375C1.90502 18.3966 1.8494 18.4462 1.78576 18.4838C1.72213 18.5213 1.65172 18.5459 1.57857 18.5562C1.50542 18.5665 1.43095 18.5623 1.35942 18.5439C1.28789 18.5254 1.2207 18.493 1.16168 18.4486C1.10267 18.4042 1.05298 18.3485 1.01546 18.2849C0.977938 18.2213 0.953319 18.1509 0.943007 18.0777C0.932696 18.0045 0.936893 17.9301 0.95536 17.8586C1.49349 15.7698 3.11161 14.102 5.14317 13.3586C4.36503 12.8507 3.77172 12.1052 3.45159 11.2329C3.13145 10.3606 3.10161 9.40823 3.36652 8.51761C3.63142 7.62699 4.17689 6.84575 4.92171 6.29021C5.66654 5.73468 6.57087 5.43457 7.50005 5.43457C8.42923 5.43457 9.33356 5.73468 10.0784 6.29021C10.8232 6.84575 11.3687 7.62699 11.6336 8.51761C11.8985 9.40823 11.8686 10.3606 11.5485 11.2329C11.2284 12.1052 10.6351 12.8507 9.85692 13.3586C11.8866 14.1029 13.5075 15.7707 14.0447 17.8595ZM7.50005 12.9376C8.13048 12.9376 8.74675 12.7507 9.27093 12.4004C9.79511 12.0502 10.2037 11.5524 10.4449 10.9699C10.6862 10.3875 10.7493 9.74658 10.6263 9.12826C10.5033 8.50995 10.1997 7.94199 9.75395 7.49621C9.30817 7.05043 8.74021 6.74685 8.1219 6.62386C7.50358 6.50087 6.86268 6.56399 6.28024 6.80525C5.6978 7.0465 5.19999 7.45505 4.84974 7.97923C4.49949 8.50342 4.31255 9.11969 4.31255 9.75011C4.31255 10.5955 4.64837 11.4062 5.24614 12.004C5.84392 12.6018 6.65467 12.9376 7.50005 12.9376Z" fill="#42434B"/>
</svg>
