<svg width="24" height="24" viewBox="0 0 24 24" fill="none" xmlns="http://www.w3.org/2000/svg">
<path d="M23.6766 10.1334L19.4062 5.15625C19.2829 5.00926 19.1288 4.89111 18.9548 4.81013C18.7809 4.72914 18.5913 4.68728 18.3994 4.6875H3C2.6519 4.6875 2.31806 4.82578 2.07192 5.07192C1.82578 5.31806 1.6875 5.6519 1.6875 6V16.5C1.6875 16.8481 1.82578 17.1819 2.07192 17.4281C2.31806 17.6742 2.6519 17.8125 3 17.8125H4.74375C4.87285 18.4483 5.21779 19.0199 5.7201 19.4305C6.22242 19.841 6.85124 20.0653 7.5 20.0653C8.14876 20.0653 8.77758 19.841 9.2799 19.4305C9.78221 19.0199 10.1271 18.4483 10.2563 17.8125H15.2438C15.3729 18.4483 15.7178 19.0199 16.2201 19.4305C16.7224 19.841 17.3512 20.0653 18 20.0653C18.6488 20.0653 19.2776 19.841 19.7799 19.4305C20.2822 19.0199 20.6271 18.4483 20.7562 17.8125H22.5C22.8481 17.8125 23.1819 17.6742 23.4281 17.4281C23.6742 17.1819 23.8125 16.8481 23.8125 16.5V10.5C23.8125 10.3655 23.7642 10.2354 23.6766 10.1334ZM18.5484 5.88469L22.0256 9.9375H16.3125V5.8125H18.3994C18.4281 5.81232 18.4565 5.81873 18.4823 5.83124C18.5082 5.84376 18.5308 5.86204 18.5484 5.88469ZM9.5625 9.9375V5.8125H15.1875V9.9375H9.5625ZM3 5.8125H8.4375V9.9375H2.8125V6C2.8125 5.95027 2.83225 5.90258 2.86742 5.86742C2.90258 5.83226 2.95027 5.8125 3 5.8125ZM7.5 18.9375C7.16624 18.9375 6.83998 18.8385 6.56248 18.6531C6.28497 18.4677 6.06868 18.2041 5.94095 17.8958C5.81323 17.5874 5.77981 17.2481 5.84492 16.9208C5.91004 16.5934 6.07076 16.2928 6.30676 16.0568C6.54276 15.8208 6.84344 15.66 7.17078 15.5949C7.49813 15.5298 7.83743 15.5632 8.14578 15.691C8.45413 15.8187 8.71768 16.035 8.9031 16.3125C9.08853 16.59 9.1875 16.9162 9.1875 17.25C9.1875 17.6976 9.00971 18.1268 8.69324 18.4432C8.37677 18.7597 7.94755 18.9375 7.5 18.9375ZM18 18.9375C17.6662 18.9375 17.34 18.8385 17.0625 18.6531C16.785 18.4677 16.5687 18.2041 16.441 17.8958C16.3132 17.5874 16.2798 17.2481 16.3449 16.9208C16.41 16.5934 16.5708 16.2928 16.8068 16.0568C17.0428 15.8208 17.3434 15.66 17.6708 15.5949C17.9981 15.5298 18.3374 15.5632 18.6458 15.691C18.9541 15.8187 19.2177 16.035 19.4031 16.3125C19.5885 16.59 19.6875 16.9162 19.6875 17.25C19.6875 17.6976 19.5097 18.1268 19.1932 18.4432C18.8768 18.7597 18.4476 18.9375 18 18.9375ZM22.5 16.6875H20.7562C20.6271 16.0517 20.2822 15.4801 19.7799 15.0695C19.2776 14.659 18.6488 14.4347 18 14.4347C17.3512 14.4347 16.7224 14.659 16.2201 15.0695C15.7178 15.4801 15.3729 16.0517 15.2438 16.6875H10.2563C10.1271 16.0517 9.78221 15.4801 9.2799 15.0695C8.77758 14.659 8.14876 14.4347 7.5 14.4347C6.85124 14.4347 6.22242 14.659 5.7201 15.0695C5.21779 15.4801 4.87285 16.0517 4.74375 16.6875H3C2.95027 16.6875 2.90258 16.6677 2.86742 16.6326C2.83225 16.5974 2.8125 16.5497 2.8125 16.5V11.0625H22.6875V16.5C22.6875 16.5497 22.6677 16.5974 22.6326 16.6326C22.5974 16.6677 22.5497 16.6875 22.5 16.6875Z" fill="#42434B"/>
</svg>
